<?xml version="1.0" encoding="UTF-8"?>
<svg width="184px" height="29px" viewBox="0 0 184 29" version="1.1" xmlns="http://www.w3.org/2000/svg" xmlns:xlink="http://www.w3.org/1999/xlink">
    <title>Untitled</title>
    <g id="Page-1" stroke="none" stroke-width="1" fill="none" fill-rule="evenodd">
        <g id="clintgunter" transform="translate(0.212891, 0.543293)" fill="#000000" fill-rule="nonzero">
            <g id="Clint-Gunter">
                <path d="M12.3398438,27.9137387 C18.9316406,27.9137387 23.5722656,23.6774105 23.8007812,17.9996762 L23.8183594,17.8063168 L17.6132812,17.8063168 L17.578125,17.9996762 C17.1386719,20.8297543 15.1523438,22.5699887 12.3574219,22.5699887 C8.82421875,22.5699887 6.57421875,19.6520199 6.57421875,14.747723 L6.57421875,14.7301449 C6.57421875,9.87858242 8.80664062,6.9781918 12.3398438,6.9781918 C15.2929688,6.9781918 17.1386719,8.84147305 17.5429688,11.4781918 L17.578125,11.7418637 L23.7832031,11.7418637 L23.7832031,11.5660824 C23.5546875,5.88834805 18.9667969,1.6344418 12.3398438,1.6344418 C4.76367188,1.6344418 0,6.46842617 0,14.747723 L0,14.7653012 C0,23.044598 4.72851562,27.9137387 12.3398438,27.9137387 Z" id="Path"></path>
                <polygon id="Path" points="24.5890266 27.4567074 30.829261 27.4567074 30.829261 2.09147305 24.5890266 2.09147305"></polygon>
                <path d="M35.1507095,6.38021172 C37.0336946,6.38021172 38.4596445,4.91769901 38.4596445,3.18096516 C38.4596445,1.44423131 37.0336946,0 35.1507095,0 C33.2860058,0 31.8417745,1.44423131 31.8417745,3.18096516 C31.8417745,4.91769901 33.2860058,6.38021172 35.1507095,6.38021172 Z M32.0393814,27.4567074 L38.2620376,27.4567074 L38.2620376,8.3141293 L32.0393814,8.3141293 L32.0393814,27.4567074 Z" id="Shape"></path>
                <path d="M39.3666893,27.4567074 L45.6069236,27.4567074 L45.6069236,16.5934262 C45.6069236,14.466473 46.8373924,12.9899105 48.8237205,12.9899105 C50.862783,12.9899105 51.8998924,14.2731137 51.8998924,16.4703793 L51.8998924,27.4567074 L58.1225486,27.4567074 L58.1225486,15.1344418 C58.1225486,10.5992855 55.7495018,7.90983242 51.5483299,7.90983242 C48.6479393,7.90983242 46.6791893,9.28092617 45.7299705,11.6891293 L45.6069236,11.6891293 L45.6069236,8.3141293 L39.3666893,8.3141293 L39.3666893,27.4567074 Z" id="Path"></path>
                <path d="M67.4186065,27.8610043 C68.7193878,27.8610043 69.6510284,27.7555355 70.3365753,27.6324887 L70.3365753,23.2028012 C69.9850128,23.2555355 69.6686065,23.2906918 69.176419,23.2906918 C67.6471221,23.2906918 66.9088409,22.6754574 66.9088409,21.0231137 L66.9088409,12.8844418 L70.7747737,12.8844418 L70.7747737,8.3141293 L66.9088409,8.3141293 L66.9088409,3.90201992 L60.6686065,3.90201992 L60.6686065,8.3141293 L55.9636884,8.3141293 C56.7477019,8.76789518 57.3922113,9.43811954 57.8972167,10.3248024 C58.4022221,11.2114852 58.7028827,12.0646983 58.7991986,12.8844418 L60.6686065,12.8844418 L60.6686065,21.8668637 C60.6686065,26.1910824 62.7779815,27.8610043 67.4186065,27.8610043 Z" id="Path"></path>
                <path d="M88.2783004,27.9137387 C95.5029098,27.9137387 99.7919723,23.6774105 99.7919723,16.7340512 L99.7919723,13.5524105 L88.4892379,13.5524105 L88.4892379,18.122723 L93.569316,18.122723 L93.5517379,18.4391293 C93.3408004,20.9879574 91.3368941,22.5699887 88.4189254,22.5699887 C84.709941,22.5699887 82.319316,19.6871762 82.319316,14.6598324 L82.319316,14.6422543 C82.319316,9.7203793 84.4814254,6.9781918 88.1376754,6.9781918 C90.616191,6.9781918 92.4267379,8.19108242 93.0947066,10.247723 L93.147441,10.4235043 L99.5283004,10.4235043 L99.4931441,10.2125668 C98.8251754,5.2906918 94.3427535,1.6344418 88.1200973,1.6344418 C80.4736129,1.6344418 75.7450973,6.4860043 75.7450973,14.7125668 L75.7450973,14.7301449 C75.7450973,23.0797543 80.4560348,27.9137387 88.2783004,27.9137387 Z" id="Path"></path>
                <path d="M107.136858,27.8610043 C110.037249,27.8610043 111.988421,26.4899105 112.955218,24.0817074 L113.078265,24.0817074 L113.078265,27.4567074 L119.300921,27.4567074 L119.300921,8.3141293 L113.078265,8.3141293 L113.078265,19.1774105 C113.078265,21.3043637 111.830218,22.7985043 109.861468,22.7985043 C107.804827,22.7985043 106.785296,21.497723 106.785296,19.3004574 L106.785296,8.3141293 L100.545061,8.3141293 L100.545061,20.6363949 C100.545061,25.1715512 102.935686,27.8610043 107.136858,27.8610043 Z" id="Path"></path>
                <path d="M120.370416,27.4567074 L126.610651,27.4567074 L126.610651,16.5934262 C126.610651,14.466473 127.841119,12.9899105 129.827447,12.9899105 C131.86651,12.9899105 132.903619,14.2731137 132.903619,16.4703793 L132.903619,27.4567074 L139.126276,27.4567074 L139.126276,15.1344418 C139.126276,10.5992855 136.753229,7.90983242 132.552057,7.90983242 C129.651666,7.90983242 127.682916,9.28092617 126.733697,11.6891293 L126.610651,11.6891293 L126.610651,8.3141293 L120.370416,8.3141293 L120.370416,27.4567074 Z" id="Path"></path>
                <path d="M148.422027,27.8610043 C149.722809,27.8610043 150.654449,27.7555355 151.339996,27.6324887 L151.339996,23.2028012 C150.988434,23.2555355 150.672027,23.2906918 150.17984,23.2906918 C148.650543,23.2906918 147.912262,22.6754574 147.912262,21.0231137 L147.912262,12.8844418 L151.778195,12.8844418 L151.778195,8.3141293 L147.912262,8.3141293 L147.912262,3.90201992 L141.672027,3.90201992 L141.672027,8.3141293 L136.967109,8.3141293 C137.751123,8.76789518 138.395632,9.43811954 138.900638,10.3248024 C139.405643,11.2114852 139.706304,12.0646983 139.80262,12.8844418 L141.672027,12.8844418 L141.672027,21.8668637 C141.672027,26.1910824 143.781402,27.8610043 148.422027,27.8610043 Z" id="Path-Copy"></path>
                <path d="M161.005501,27.8610043 C167.10511,27.8610043 169.513313,24.2750668 170.093391,21.6207699 L170.146126,21.4098324 L164.521126,21.4098324 L164.503547,21.497723 C164.222297,22.2887387 163.132454,23.4313168 161.128547,23.4313168 C158.860969,23.4313168 157.454719,21.9020199 157.384407,19.3180355 L170.251594,19.3180355 L170.251594,17.4899105 C170.251594,11.6891293 166.577766,7.90983242 160.794563,7.90983242 C154.976204,7.90983242 151.284797,11.7242855 151.284797,17.8766293 L151.284797,17.8942074 C151.284797,24.0817074 154.958626,27.8610043 161.005501,27.8610043 Z M160.935188,12.3395199 C162.763313,12.3395199 164.064094,13.4996762 164.380501,15.6442074 L157.472297,15.6442074 C157.788704,13.5348324 159.107063,12.3395199 160.935188,12.3395199 Z" id="Shape"></path>
                <path d="M170.723433,27.4567074 L176.963668,27.4567074 L176.963668,17.2965512 C176.963668,14.5719418 178.387496,13.1305355 181.006637,13.1305355 C181.744918,13.1305355 182.465621,13.2711605 182.992965,13.482098 L182.992965,8.15592617 C182.518355,7.99772305 181.973433,7.90983242 181.375777,7.90983242 C179.125777,7.90983242 177.614058,9.28092617 177.086715,11.7067074 L176.963668,11.7067074 L176.963668,8.3141293 L170.723433,8.3141293 L170.723433,27.4567074 Z" id="Path"></path>
            </g>
        </g>
    </g>
</svg>